<svg width="239.528" height="265.906" viewBox="0 0 63.375 70.354" xml:space="preserve" xmlns="http://www.w3.org/2000/svg"><path style="fill:#fff;fill-opacity:1;stroke-width:.127" d="M91.327 134.692c-2.595-.19-5.849-.888-8.191-1.754-2.872-1.062-6.087-2.888-8.573-4.87-1.49-1.187-3.978-3.665-5.127-5.106-8.858-11.102-10.556-27.06-4.265-40.069C69.723 73.481 77.94 66.84 87.39 64.936c4.411-.888 8.995-.738 13.28.436 7.115 1.95 13.477 6.62 17.823 13.084 3.354 4.988 5.226 10.166 6.127 16.947.21 1.581.211 6.702.002 8.255-.689 5.112-1.755 8.786-3.708 12.775-2.678 5.47-6.61 9.993-11.553 13.287-3.682 2.454-8.05 4.135-12.27 4.722-1.45.203-4.574.338-5.764.25zm3.211-6.416c8.807-5.31 16.288-12.8 18.118-18.141 1.071-3.125 1.656-7.326 1.657-11.9.003-5.826-2.008-11.492-5.699-16.067-2.727-3.381-7.155-6.243-10.969-7.09-.401-.09-.73-.187-.73-.217s.123-.155.274-.277c.414-.335.194-.535-.506-.46-2.541.275-3.23.333-3.287.276-.036-.036.486-.642 1.16-1.346 1.644-1.718 1.55-1.874-.581-.97-2.044.866-1.953.924-1.109-.714 1.17-2.27.958-2.445-.954-.791-.69.596-1.267 1.068-1.284 1.048-.016-.02.078-.665.21-1.434.266-1.56.264-2.159-.01-2.159-.1 0-.585.676-1.08 1.502l-.898 1.501-.098-.485c-.054-.267-.197-.996-.317-1.62-.121-.623-.288-1.155-.37-1.182-.267-.087-.535.516-.821 1.845-.154.713-.314 1.297-.356 1.297-.042 0-.351-.567-.688-1.26-.91-1.879-1.357-2.144-1.342-.796.004.397.049 1.137.1 1.643.05.507.062.92.026.92-.036 0-.562-.493-1.168-1.097-.81-.806-1.16-1.075-1.32-1.014-.3.115-.191.578.466 1.992.291.627.5 1.17.463 1.206-.037.037-.673-.254-1.414-.647-2.142-1.133-2.388-.83-.778.956.598.663 1.034 1.223.97 1.244-.065.022-.795-.077-1.623-.218-1.305-.223-1.528-.233-1.686-.076-.26.26-.103.405 1.38 1.283.7.414 1.273.79 1.273.835 0 .046-.5.152-1.11.236-1.686.232-1.965.305-2.116.546-.187.301.003.407 1.192.663.525.113 1.206.273 1.513.356l.557.15-1.795.93c-1.04.537-1.796 1.005-1.796 1.11 0 .14.197.182.853.182h.853l-.708.73c-3.717 3.835-6.129 9.013-6.962 14.945-.36 2.564-.364 6.61-.009 8.772.91 5.537 3.121 9.682 7.683 14.398 2.279 2.355 5.992 5.427 9.085 7.514 1.082.73 4.226 2.65 4.354 2.657.055.003.683-.346 1.397-.776zm-2.918-5.237c-1.667-.804-2.802-1.574-3.988-2.707-1.234-1.179-1.992-2.207-2.603-3.53-.722-1.562-.79-2.131-.872-7.286-.04-2.558-.104-5.323-.142-6.144l-.07-1.492h3.699v-.387c0-.362.163-.585.813-1.11.15-.12.203-.39.204-1.016 0-.47.037-1.327.083-1.907.078-1.007.07-1.058-.192-1.126-.168-.044-.37-.288-.52-.629-.136-.306-.301-.556-.367-.556-.366 0-.367 1.388-.002 2.341l.273.714-.297.316c-.352.374-1.116.63-1.551.522-.49-.123-.951-.68-1.125-1.36-.089-.346-.232-.628-.317-.628-.222 0-.685.795-.685 1.176 0 .176.113.57.251.874.516 1.137.14 1.945-.907 1.945-.635 0-.945-.333-1.066-1.143-.1-.66-.229-.71-.497-.191-.334.645-.248 1.501.25 2.49.244.485.444 1.044.444 1.243 0 .49-.696 1.178-1.31 1.293-1.034.195-1.485-.237-1.622-1.552-.046-.447-.118-.846-.16-.888-.149-.149-.431.225-.842 1.116-.371.806-.409.99-.35 1.715l.065.812-.624-.34c-.872-.474-1.171-.999-1.095-1.921.033-.398.082-.81.11-.914.052-.197-.038-.202-.868-.045-.859.162-1.558-.458-1.558-1.381 0-.544.301-.967.853-1.197.369-.154.589-.159 1.368-.028 1.06.178 1.342.076 1.755-.636.228-.395.228-.396-.064-.41-1.358-.059-1.697-.203-1.959-.829-.265-.634-.117-1.274.35-1.515.327-.17.52-.168 1.775.016 1.137.167 1.522.178 1.999.058.695-.175 1.945-.817 2.254-1.16.21-.232.195-.24-.506-.24-.805 0-1.584-.32-1.911-.788-.275-.392-.249-.517.072-.345.174.093.734.126 1.556.092 1.092-.046 1.424-.114 2.215-.457 1.21-.524 2.426-1.348 3.592-2.432.728-.677.91-.913.811-1.056-.07-.102-.238-.342-.374-.535-.154-.22-.25-.571-.254-.935-.007-.545.024-.6.438-.804.244-.121.632-.223.862-.226.514-.008 1.424-.454 1.424-.699 0-.324-.234-.802-.524-1.073-.243-.226-.446-.266-1.333-.266-1.064 0-1.445-.151-1.445-.572 0-.27.369-.571.7-.571.373 0 .515-.205.311-.45-.174-.21-1.081-.253-1.202-.057-.147.238-.836.52-1.081.443-.154-.05-.275-.245-.33-.535-.107-.576.15-.798.928-.798.3 0 .547-.052.547-.115 0-.142-.698-.393-1.092-.393-.857 0-1.38-1.35-.805-2.078.257-.326.345-.357.847-.3.625.07 1.182.507 1.439 1.128.19.456.391.41.53-.123.057-.222.242-.494.411-.605.265-.174.356-.178.663-.029.348.169.356.197.356 1.237 0 .677.052 1.081.144 1.113.079.027.179-.093.222-.266.094-.372.434-.51.861-.348.517.197.626.457.76 1.818.14 1.408.304 1.918.641 1.983.34.066.513-.438.681-1.985.087-.793.22-1.506.298-1.583.283-.284.43.16.524 1.586.052.79.134 1.532.183 1.649.153.371.49.4.778.066.209-.244.283-.553.347-1.454.095-1.347.216-1.723.645-2.004.396-.26.812-.144.969.27.227.597.377.316.377-.71 0-.847.042-1.059.254-1.27.14-.14.327-.254.416-.254.31 0 .707.383.79.762.106.483.37.489.567.012.274-.662.716-.967 1.367-.942.767.03 1.115.365 1.097 1.055-.017.632-.326 1.117-.778 1.219-1.508.34-1.708.524-.633.586l.666.038v.569c0 .5-.04.582-.338.687-.281.1-.405.062-.74-.22-.43-.361-1.105-.453-1.373-.185-.202.202-.193.356.021.356.277 0 .843.505.843.751 0 .124-.11.324-.242.444-.204.184-.386.205-1.14.131l-.897-.088-.448.448c-.474.474-.602 1.076-.284 1.34.09.075.585.154 1.098.174.849.035.958.07 1.193.386.168.225.278.608.313 1.09.048.669.02.779-.29 1.113l-.344.37.679.61c2.49 2.237 4.311 3.072 6.517 2.987.583-.022 1.03.008.993.067-.036.06-.328.274-.648.476-.42.266-.741.37-1.16.37-.968.004-1.031.17-.249.66 1.34.84 1.615.911 3.132.817.751-.046 1.605-.12 1.897-.162.502-.073.547-.053.794.35.365.6.344 1.311-.05 1.705-.243.244-.445.312-.92.314-.852.003-1.015.127-.731.56.399.609.855.754 1.79.568.952-.19 1.357-.09 1.744.431.755 1.013-.162 2.453-1.345 2.114-.697-.2-.705-.19-.639.738.043.599.003.997-.13 1.317-.193.461-.825 1.032-1.299 1.174-.24.072-.254.017-.254-.97 0-.88-.052-1.144-.33-1.673-.182-.345-.454-.71-.604-.81-.264-.175-.272-.164-.275.375-.007 1.328-.847 2.173-1.883 1.894-1.09-.294-1.422-1.33-.757-2.365.183-.285.39-.722.458-.971.148-.536-.015-1.59-.289-1.864-.203-.204-.22-.18-.378.538-.194.883-1.197 1.259-1.894.71-.403-.317-.42-.65-.08-1.514.304-.772.321-1.28.06-1.784-.295-.57-.636-.492-.807.187-.16.64-.4.923-.99 1.17-.563.235-.92.217-1.395-.073-.569-.347-.622-.649-.24-1.366.4-.751.437-1.65.086-2.083l-.238-.294-.286.56c-.157.308-.422.666-.587.797-.363.285-.384.763-.123 2.74.161 1.22.204 1.342.584 1.69.339.309.396.438.334.748l-.075.375h3.741l-.038 4.667c-.022 2.567-.085 5.639-.14 6.826-.093 1.961-.136 2.247-.479 3.119-.511 1.302-1.18 2.287-2.321 3.425-1.133 1.129-2.68 2.188-4.352 2.98-1.694.803-1.735.804-3.109.142zm2.593-.895c1.012-.484 2.234-1.23 2.669-1.63l.284-.26-.655-.71c-.619-.67-3.691-3.812-8.986-9.19-1.288-1.308-2.368-2.378-2.401-2.378-.033 0-.026 1.415.015 3.145.075 3.114.08 3.157.47 4.238.816 2.253 2.531 4.448 4.503 5.76 1.155.768 2.547 1.462 2.933 1.462.142 0 .667-.197 1.168-.437zm3.074-5.415c.258-.461.328-.508.626-.427.56.153.804.13.946-.092.106-.165.06-.328-.215-.741-.345-.522-.347-.54-.146-1.04.292-.732.12-.907-.656-.673-.552.166-.603.16-1.037-.136-.748-.508-.942-.374-.816.563.039.288.018.524-.046.524s-.314.164-.554.365c-.38.317-.415.391-.265.571.104.126.364.207.664.207.384 0 .492.049.493.222 0 .122.06.437.133.699.178.64.498.624.873-.042zm3.565-8.126v-5.722l-2.508.04c-2.5.038-2.511.04-3.263.42-.469.236-.829.52-.952.75-.324.603-.617.837-1.046.837-.409 0-.867-.3-.867-.568 0-.41-1.477-1.328-2.147-1.334-.374-.003-.472-.11 5.887 6.396 2.518 2.576 4.598 4.733 4.62 4.794.22.568.276-.58.276-5.613zm-8.358 3.195.285-.496.671.07c.598.06.67.042.67-.172 0-.132-.134-.46-.297-.73-.285-.471-.289-.508-.097-1.043.273-.758.112-.917-.662-.653-.551.188-.585.184-1.02-.111-.758-.516-1.019-.372-.826.456.081.347.06.472-.098.571-1.079.68-1.097 1.207-.042 1.207.321 0 .375.056.45.476.19 1.049.523 1.195.966.425zm-4.441-4.327.29-.505.666.078c.632.074.667.063.667-.21 0-.159-.12-.484-.269-.723-.244-.396-.254-.486-.108-1.006.22-.786.06-.942-.688-.673-.53.19-.56.187-.917-.097-.202-.162-.504-.295-.67-.295-.29-.001-.3.029-.23.625.072.61.063.634-.366.887-.243.143-.478.355-.522.471-.11.286.283.556.81.556.38 0 .42.035.42.373 0 .524.213 1.024.438 1.024.104 0 .32-.227.479-.505zm5.422-3.21c.06-.157.259-.446.44-.64l.332-.356-.268-.525c-.251-.493-.265-.68-.219-3.01.043-2.19.08-2.546.308-2.994.384-.754 1.14-1.11 2.212-1.043.454.028.922.094 1.04.145.165.072.276-.027.483-.433.26-.51.262-.546.054-1.09-.24-.632-.222-.618-.552-.412-.19.118-.48.104-1.363-.065-.617-.118-1.325-.214-1.573-.214-.598.001-.756-.186-.756-.892 0-.672.1-.845.315-.55.121.166.202.177.422.06.694-.372.55-1.284-.202-1.284-.234 0-.389-.09-.473-.275-.2-.44-.503-.566-.877-.366-.178.096-.358.283-.4.416-.048.148-.151.215-.264.172-.215-.083-.807.458-.807.736 0 .188.574.714.78.714.06 0 .109-.086.109-.19 0-.105.057-.191.127-.191.145 0 .17 1.26.03 1.475-.116.176-2.998.563-3.529.474-.326-.055-.412-.013-.54.269-.206.452-.191.738.064 1.274.151.317.275.43.413.377.784-.303 1.3-.36 1.877-.205.712.19 1.4.682 1.566 1.12.065.171.12 1.437.12 2.812 0 2.057-.039 2.61-.22 3.117l-.222.617.34.272c.186.15.398.43.47.622.165.435.606.471.763.063zm-4.942-9.395c0-.231.225-.423.35-.298.044.043-.017.176-.135.294-.198.198-.215.198-.215.004zm.889-.064c0-.197.294-.256 1.683-.337 1.103-.065 1.283 0 1.014.366-.142.194-2.697.166-2.697-.029zm4.572-.121v-.317l1.323.043c.728.024 1.367.087 1.42.14.21.212-.195.32-1.441.384l-1.302.067zm3.387.13c-.122-.122-.105-.297.028-.297.063 0 .147.086.187.19.074.194-.061.26-.215.106zm-4.534-2.906c-.124-.148-.127-.232-.016-.343.111-.111.147-.106.147.023 0 .094.1.246.222.34.198.149.2.168.016.172-.114.002-.28-.084-.37-.192zm-15.242 11.724c.483-1.514 2.684-3.908 8.455-9.196 3.045-2.791 3.869-3.602 3.655-3.602-.171 0-1.792 1.156-3.082 2.198-2.595 2.097-6.968 6.308-8.07 7.771-1 1.328-1.615 2.78-1.406 3.323.105.274.255.108.448-.494zm31.5-.002c-.002-1.187-1.338-3.09-4.124-5.875-2.277-2.277-7.035-6.259-8.198-6.86-.793-.41-.352.148 1.09 1.378 2.189 1.867 5.663 5.045 7.17 6.557 1.525 1.53 3.683 4.55 3.683 5.154 0 .102.086.185.19.185.14 0 .19-.144.19-.54zm-17.322-.623c.122-.197-.232-.437-1.015-.69-1.22-.393-2.082-.83-2.15-1.092-.086-.326-.516-.258-.566.09-.067.461.275.69 1.878 1.253 1.857.653 1.739.625 1.853.44zm4.318-.371c.826-.285 1.597-.569 1.714-.632.298-.159.384-.45.243-.82-.144-.377-.508-.424-.508-.066 0 .334-.323.521-1.873 1.083-1.184.43-1.46.626-1.217.868.11.11-.065.155 1.641-.433zm-4.133-.51c.086-.16.15-1.107.163-2.381.02-2.026.008-2.143-.296-2.745-.175-.345-.472-.74-.661-.878-.394-.286-1.67-.445-1.805-.225-.047.077-.14.983-.207 2.015-.22 3.39-.227 3.206.149 3.49.278.211 2.124.959 2.424.982.05.004.155-.112.233-.258zm-1.705-.944c-.151-.15-.167-.273-.07-.527.069-.182.11-.34.09-.351a11.34 11.34 0 0 0-.385-.17c-.192-.083-.349-.21-.349-.284 0-.205.38-.305.542-.143.206.206.387.178.301-.046-.1-.261.036-.572.25-.572.118 0 .177.15.177.445 0 .343.052.444.229.444.29 0 .533.24.533.526 0 .358-.282.434-.483.131-.263-.397-.406-.34-.406.161 0 .516-.158.658-.43.386zm.429-1.077a.127.127 0 1 0-.127.127c.07 0 .127-.057.127-.127zm5.32.914c.076-.14.078-.3.007-.412-.176-.277-.148-.34.183-.423.348-.088.53-.438.333-.636-.095-.095-.206-.09-.373.014-.207.129-.25.106-.32-.17-.06-.24-.15-.31-.36-.28-.23.033-.278.117-.263.454.015.328-.031.412-.225.412-.31 0-.6.578-.394.785.105.105.227.087.467-.07.322-.212.324-.211.324.171 0 .297.056.384.25.384a.47.47 0 0 0 .371-.229zm-4.973-7.52c.835-.13 1.06-.213 1.123-.408.094-.297.024-.376-.495-.553-.324-.11-.427-.235-.522-.635-.065-.273-.136-.52-.157-.548-.072-.097-2.048 1.541-2.248 1.866-.045.073.013.228.13.345.227.227.293.225 2.169-.068zm6.384-.27c0-.505-1.712-1.995-1.982-1.725-.037.037.314.526.78 1.087.833.998 1.202 1.194 1.202.637zm-7.552-3.087c.242-.1.44-.213.44-.25 0-.036-.172-.404-.382-.817-.39-.768-.775-1.033-1.104-.76-.23.192-.21.287.153.718.38.452.404.587.073.41-.134-.072-.31-.331-.39-.576-.082-.245-.225-.446-.32-.446-.295 0-.352.506-.124 1.102.299.782.808.973 1.654.62zm8.142-.085c.272-.226.176-1.408-.144-1.76-.54-.598-1.135-.115-.834.677.165.434.167.499.014.404-.065-.04-.158-.33-.205-.642-.072-.486-.128-.569-.38-.569-.422 0-.474.165-.308.966.194.937.503 1.244 1.16 1.156.274-.037.588-.141.697-.232zm-6.35-.302c.479-.2.474-.175.236-1.08-.046-.174.078-.031.276.318.334.592.395.637.908.674.632.046.957-.156.866-.538-.06-.254-.057-.255.087-.017.385.639.725.866 1.185.791.714-.116.836-.286.736-1.028-.12-.887-.259-1.112-.657-1.065-.505.061-.654.407-.381.885.124.218.2.422.168.454-.092.092-.458-.687-.458-.975 0-.348-.333-.332-.528.025l-.155.286-.077-.318c-.064-.262-.153-.317-.516-.317-.405 0-.438.029-.428.38.006.21.054.496.106.636.093.25.092.25-.106.007-.11-.135-.201-.409-.201-.607 0-.482-.348-.612-.648-.242-.226.28-.227.28-.365.022-.156-.292-.655-.347-.915-.1a.685.685 0 0 1-.408.158c-.578 0-.58.765-.003 1.45.369.439.617.478 1.278.201zm-.806-.854c-.288-.372-.306-.523-.03-.26.162.154.264.313.225.351-.038.039-.126-.002-.195-.091zm.597-2.017c0-.147-.212-.675-.47-1.175-.645-1.243-2.183-2.784-3.498-3.503-1.037-.567-1.197-.702-.987-.832.371-.23-.091-.5-.553-.325-.752.286-.447.85.825 1.529 1.644.876 3.528 2.663 4.12 3.907.33.693.563.859.563.4zm3.81-.272c.385-.743 1.53-2.14 2.187-2.67.299-.24 1.06-.781 1.69-1.201.63-.42 1.226-.862 1.325-.982.243-.292.03-.627-.437-.682-.315-.037-.344-.01-.277.261.068.268-.022.359-.777.787-1.257.713-2.568 1.748-3.096 2.445-.872 1.152-1.316 2.219-1.038 2.497.124.124.12.129.423-.455zm-14.608 27.368c-.218-.262-.522-.787-.673-1.166-.348-.868-.538-.94-.632-.237-.046.34-.176.626-.35.766-.39.316-1.194.293-1.53-.043-.323-.323-.267-.761.214-1.681.326-.624.368-1.23.092-1.32-.088-.03-.21.166-.29.466-.167.617-.585.93-1.168.874-.645-.062-.812-.516-.557-1.512.248-.968.25-1.587.007-2.275-.217-.615-.26-2.596-.066-3.103.135-.357.384-.442.384-.13 0 .107.112.414.248.682.574 1.125 1.584 1.487 2.877 1.033.407-.143.866-.26 1.02-.26.446 0 .808.572.808 1.278 0 .506-.056.653-.335.872-.184.144-.5.263-.702.263-.454 0-.612.323-.28.573.367.28.76.223 1.217-.173a4.8 4.8 0 0 1 .695-.508c.717-.377 1.437.023 1.437.798 0 .991-.5 1.409-1.582 1.322-.318-.025-.577-.003-.577.05 0 .052.322.277.717.5.394.222.937.613 1.206.87.427.406.49.539.49 1.038 0 .917-.69 1.499-1.78 1.499-.413 0-.555-.076-.89-.476zm1.499-.484c.155-.109.282-.315.282-.458 0-.338-1.482-1.868-3.111-3.214-1.425-1.176-2.285-2.055-2.78-2.84-.185-.29-.388-.53-.453-.53-.684 0 .551 1.63 3.208 4.233 2.078 2.036 2.288 2.28 2.088 2.427-.58.427.168.801.766.382zm21.417.72c-.5-.304-.86-1.043-.751-1.539.096-.438.648-.95 1.633-1.513.394-.225.716-.456.716-.512 0-.056-.345-.128-.766-.158-.939-.068-1.155-.26-1.235-1.1-.054-.556-.021-.675.266-.961.408-.409.691-.412 1.24-.015.237.172.648.431.912.577.418.229.525.242.816.1.55-.268.482-.445-.251-.658-.376-.109-.78-.304-.896-.433-.45-.498-.115-1.656.541-1.864.132-.042.594.043 1.026.189.92.31 1.679.252 2.316-.178.507-.341.984-1.035.984-1.43 0-.459.197-.354.36.193.208.692.184 1.883-.055 2.687-.2.673-.197 1.054.024 2.993.085.748-.122 1.068-.69 1.068a.939.939 0 0 1-.956-.777c-.113-.562-.318-.791-.541-.606-.255.212-.217.467.207 1.363.402.85.465 1.276.25 1.68-.245.457-1.615.208-1.822-.332-.043-.113-.079-.401-.079-.64s-.055-.434-.121-.434c-.067 0-.321.421-.566.936-.244.515-.622 1.086-.84 1.27-.481.404-1.153.441-1.722.094zm1.225-.654c.292-.156.324-.376.055-.376-.532 0 .146-.75 3.025-3.342 1.143-1.03 2.163-2.314 2.313-2.915.142-.563-.122-.41-.817.476-.356.452-1.671 1.718-2.923 2.812-2.72 2.377-3.138 2.995-2.267 3.345.376.151.333.151.614 0zM78.945 95.593c-.763-.27-1.406-1.026-1.576-1.854-.135-.66-.121-.841.197-2.598.042-.23-.041-.748-.203-1.27-.304-.98-.269-1.545.12-1.896.584-.53 1.366-.107 1.488.805.039.29.119.527.178.527.06 0 .226-.233.371-.517l.264-.516-.324-.554c-.41-.7-.412-1.132-.005-1.538.474-.474 1.16-.39 1.55.19.159.238.29.571.29.74 0 .52.396.296.58-.327.282-.958 1.027-1.542 1.966-1.542 1.002 0 1.778 1.222 1.382 2.178-.199.48-1.052 1.047-1.907 1.266-.819.21-.804.443.034.524.774.074 1.12.4 1.12 1.058 0 .83-1.056 1.277-1.6.676-.566-.626-1.324-.735-1.861-.268-.354.307-.265.448.23.368.25-.04.596-.02.77.046.278.106.311.185.277.654-.033.45-.105.572-.452.774-.377.22-.489.226-1.303.08-.866-.154-.9-.15-1.207.138-.368.346-.423 1.021-.138 1.702.19.456.91 1.102 1.377 1.237.179.051.023.085-.412.09-.384.004-.927-.074-1.206-.173zm-.59-2.36c.22-1.251.68-2.086 1.703-3.09a7.855 7.855 0 0 1 1.998-1.46c.594-.307 1.314-.718 1.601-.913 1.005-.684 1.036-1.638.053-1.638-.584 0-.745.179-.452.502.2.222.13.286-1.443 1.326-2.948 1.95-3.993 3.292-3.977 5.109.01 1.194.318 1.292.517.164zm27.165 2.443c.467-.135 1.187-.781 1.378-1.237.266-.637.226-1.349-.095-1.693-.245-.263-.337-.282-.92-.19-.97.151-1.414.122-1.78-.118-.264-.173-.33-.317-.33-.724 0-.421.053-.528.309-.626.17-.064.512-.084.762-.043.26.042.453.02.453-.05 0-.21-.423-.512-.84-.6-.327-.07-.495-.008-.985.366-.675.516-1.048.562-1.523.188-.242-.19-.335-.381-.335-.685 0-.653.346-.979 1.12-1.053.827-.08.851-.308.055-.52-1.944-.518-2.625-1.896-1.495-3.026.342-.342.521-.422.949-.422.938 0 1.683.584 1.966 1.542.184.623.58.846.58.327 0-.169.13-.502.29-.74.39-.58 1.075-.664 1.55-.19.387.388.41.889.065 1.41-.303.458-.32.838-.06 1.34.27.521.411.469.51-.189.096-.641.408-.992.884-.992.831 0 1.097.817.691 2.124-.248.799-.26.954-.115 1.588.228 1.002.208 2.393-.041 2.873-.485.934-1.468 1.458-2.694 1.435-.421-.008-.539-.04-.349-.095zm2.722-2.188c.133-.615-.09-1.705-.49-2.39-.523-.9-1.624-1.896-3.452-3.127-1.562-1.05-1.656-1.136-1.466-1.346.11-.123.164-.284.118-.358-.127-.206-.913-.161-1.138.064-.247.247-.249.354-.015.807.2.386.868.845 2.327 1.6 1.936 1 3.273 2.657 3.62 4.486.162.85.348.95.496.264zM92.24 80.801a1.863 1.863 0 0 1-.62-.736c-.172-.412-.175-.54-.023-.977.212-.613.855-1.084 1.478-1.084.645 0 1.427.8 1.427 1.458 0 .516-.279 1.084-.644 1.312-.471.295-1.171.306-1.618.027zm-5.455-1.816c-2.757-1.05-2.34-4.906.581-5.374 1.135-.18 2.558.742 2.943 1.91.373 1.13-.176 2.586-1.202 3.187-.658.385-1.708.51-2.322.277zm-10.952 46.938c0-.048-.124-.219-.275-.38-.248-.264-.256-.314-.082-.516.105-.123.695-.824 1.31-1.557 2.13-2.539 2.196-2.603 2.457-2.367.253.23.527.275.527.088 0-.143-1.891-1.806-2.571-2.262-.262-.175-.805-.396-1.207-.49-.632-.149-.822-.146-1.41.024-.81.233-1.781 1.075-2.173 1.884-.345.713-.352 1.938-.015 2.588.491.95 3.439 3.51 3.439 2.988zm-2.222-2.118c-.82-.82-.968-1.325-.639-2.186.527-1.379 1.927-2.594 2.988-2.594.613 0 1.453.428 1.958.998.24.27.24.279-.01.559-.14.156-.953 1.099-1.806 2.094-.854.995-1.61 1.81-1.681 1.81-.07 0-.435-.307-.81-.681zm39.274.667c.513-.6.682-1.002.42-1.002-.066 0-.203.118-.304.263-.101.145-.214.215-.25.157-.131-.212-1.114-2.865-1.076-2.904.07-.07 2.825.603 2.95.72.076.07.064.17-.032.265-.204.204-.192.356.028.356.225 0 1.666-1.625 1.547-1.745-.048-.048-.199-.018-.334.067-.2.125-.528.093-1.74-.17a93.458 93.458 0 0 0-1.902-.396c-.24-.044-.78-.386-1.311-.834l-.903-.76.263-.28c.264-.282.349-.581.163-.581-.095 0-1.12 1.032-1.6 1.611-.323.39-.134.645.227.305l.279-.261.847.712c.834.7.857.738 1.498 2.364.56 1.425.64 1.73.568 2.207-.046.305-.037.55.02.545.056-.005.345-.293.642-.64zm-43.759-5.836c-.088-.141-.128-.308-.088-.372.058-.094 3.672-2.282 4.565-2.763.2-.108.292-.074.492.18.153.195.292.269.365.195.116-.115-.91-1.962-1.183-2.132-.218-.134-.286.058-.136.387.14.308.094.344-2.294 1.776l-2.438 1.462-.268-.336c-.182-.229-.297-.289-.36-.187-.142.23 1.189 2.362 1.364 2.186.103-.103.098-.21-.019-.396zm49.167-1.974.35-.711-.342-.448c-.188-.246-.961-1.196-1.72-2.111-.758-.916-1.378-1.695-1.378-1.73 0-.037 1.255-.048 2.79-.024l2.79.042.346-.705c.385-.785.304-1.1-.14-.545l-.286.358-2.502-1.247c-1.826-.91-2.487-1.3-2.447-1.438.03-.105.096-.29.147-.413.065-.159.031-.222-.118-.222-.263 0-1.168 1.815-.942 1.89.134.045.421-.237.516-.505.02-.057.865.324 1.878.846l1.842.948-2.35-.016c-2.9-.021-2.821-.027-2.772.19.023.099.756 1.05 1.629 2.115.873 1.065 1.632 2.011 1.687 2.103.116.196-.178.066-2.43-1.076-1.224-.62-1.555-.842-1.508-1.01.034-.118.082-.293.108-.39.026-.095-.021-.2-.105-.23-.16-.059-1.181 1.828-1.181 2.18 0 .282.146.238.442-.133l.26-.327 2.475 1.26c1.679.855 2.46 1.318 2.427 1.438a32.17 32.17 0 0 1-.11.4c-.038.137.006.223.116.223.099 0 .336-.32.528-.712zm-51.919-3.721c-.044-.203-.03-.4.03-.438.193-.119 4.958-1.606 5.146-1.606.098 0 .243.143.323.317.136.3.404.441.404.214 0-.057-.092-.414-.205-.794-.464-1.565-.811-2.087-.811-1.22v.423l-2.127.676c-3.562 1.133-3.2 1.056-3.331.71-.162-.428-.384-.529-.384-.175 0 .54.644 2.262.846 2.262.144 0 .17-.09.11-.37zm-1.717-5.79c0-.245.023-.445.052-.445.028 0 1.014-.139 2.19-.308 1.177-.169 2.422-.326 2.767-.349.575-.038.634-.016.702.266.118.49.387.48.375-.011-.033-1.457-.625-3.267-.625-1.912v.502l-1.106.143c-.608.078-1.143.1-1.189.049-.045-.052-.147-.432-.227-.845-.19-.981-.656-1.765-1.208-2.027-.547-.26-.831-.26-1.48 0-.632.252-1.013.914-1.013 1.757 0 .568.322 2.967.456 3.402.118.38.306.244.306-.223zm-.156-1.667c-.036-.061-.105-.38-.152-.708-.153-1.052.391-1.626 1.542-1.626.828 0 1.24.47 1.324 1.514.043.53.025.567-.335.665-.612.167-2.308.278-2.38.155zm57.879-.969c.108-.301.537-4.477.477-4.635-.109-.283-.292-.169-.373.232l-.078.392-.776-.08c-4.917-.504-4.95-.51-4.866-.83a.64.64 0 0 0-.104-.47c-.155-.213-.17-.207-.234.089-.103.478-.461 3.877-.461 4.373 0 .472.006.475 1.302.653.824.113.796-.148-.068-.645-.75-.432-.798-.56-.663-1.82l.088-.816.845.085c.465.047 1.067.12 1.337.162l.492.077-.058 1.003c-.056.967.058 1.348.293.976.061-.096.112-.382.113-.635.001-.253.04-.647.085-.875l.083-.414 1.15.081c.632.045 1.194.127 1.25.183.157.157-.11 1.942-.324 2.155-.104.104-.463.26-.797.344-.67.17-.859.396-.405.483.663.127 1.636.088 1.692-.068zM68.356 99.78c.723-.255 1.55-1.074 1.897-1.882.36-.837.288-1.866-.186-2.675-1.353-2.308-4.736-2.264-6.005.079-.317.585-.317 2.286 0 2.87.356.658 1.146 1.373 1.754 1.587.726.257 1.844.266 2.54.021zm-2.389-1.12c-1.275-.325-1.728-.838-1.718-1.945.007-.77.202-1.145.838-1.62.283-.213.581-.271 1.561-.307 1.428-.053 2.194.126 2.79.65 1.05.922.703 2.63-.638 3.136-.592.224-2.11.27-2.833.086zm53.523-3.046c1.502-.39 2.317-1.45 2.317-3.015 0-.749-.42-3.3-.588-3.571-.152-.248-.325-.07-.274.28.067.459.126.44-2.948 1.013-1.153.215-2.2.414-2.328.442-.165.036-.27-.058-.363-.327-.154-.44-.438-.42-.383.027.124 1.004.6 3.053.818 3.515.298.635 1.238 1.507 1.8 1.67.582.169 1.209.158 1.95-.034zm-2.724-1.211a2.425 2.425 0 0 1-.621-.585c-.277-.422-.586-1.742-.442-1.886.06-.06 1.288-.342 2.729-.627 2.024-.4 2.654-.483 2.77-.366.092.092.153.569.156 1.22.004 1.048-.005 1.08-.428 1.517-.559.578-1.337.846-2.679.922-.93.053-1.136.026-1.485-.195zm-45.653-3.614c.151-.408.275-.822.275-.92 0-.295-.248-.204-.409.148-.117.257-.22.316-.473.271-.33-.057-3.944-1.319-4.032-1.407-.026-.026.654-.288 1.512-.582 4.755-1.627 4.888-1.69 4.536-2.114-.153-.183-.464-.304-3.356-1.306-2.326-.806-2.294-.788-2.097-1.157.174-.325-.005-.627-.21-.357-.166.217-.678 1.598-.678 1.827 0 .294.248.203.41-.15.123-.271.21-.315.506-.256.532.106 3.783 1.266 3.783 1.35 0 .04-1.293.523-2.872 1.075l-2.873 1.002-.239.558c-.252.59-.31 1.045-.132 1.045.058 0 .171-.143.25-.318.08-.174.247-.317.37-.317.124 0 1.311.387 2.639.86 2.386.85 2.413.863 2.427 1.238.008.208.022.433.032.5.035.249.364-.27.631-.99zm42.947-3.796c0-.362.264-.671 2.286-2.676 1.257-1.247 2.286-2.322 2.286-2.389 0-.263-.606-.3-3.516-.216l-3.024.088-.26-.31c-.541-.65-.601-.151-.107.893.362.763.618.922.531.33l-.054-.372 1.008-.04 1.009-.042.31.699c.53 1.193.522 1.249-.258 2.015-.667.656-.7.672-.838.413-.169-.316-.389-.355-.389-.07 0 .304.77 2.087.9 2.087.064 0 .116-.184.116-.41zm.946-3.975c-.171-.386-.311-.73-.311-.762 0-.033.557-.058 1.238-.056l1.239.005-.798.757c-.438.417-.856.758-.927.758-.072 0-.27-.316-.441-.702zm-40.66.797c.168-.227.748-1.142 1.29-2.034 1.102-1.813 1.099-1.719.08-2.372-.912-.586-1.021-.476-.391.394.21.29.381.647.381.796 0 .298-.874 1.85-1.042 1.85-.089 0-2.1-1.2-2.245-1.34-.027-.026.187-.424.476-.885.568-.905.622-1.076.344-1.076-.1 0-.39.341-.643.759-.253.417-.513.791-.576.83-.106.065-1.622-.8-2-1.14-.129-.117-.06-.304.336-.918.274-.424.556-.806.627-.85.196-.12.665-.13 1.262-.024.449.079.54.061.54-.106 0-.111-.044-.202-.098-.202-.054 0-.406-.203-.782-.45-.376-.248-.724-.405-.773-.35-.23.258-2.451 3.91-2.506 4.12-.084.32.164.299.397-.035.12-.172.278-.248.432-.208.451.118 4.6 2.788 4.6 2.96 0 .094-.057.206-.127.25-.161.1-.167.444-.007.444.066 0 .257-.186.425-.413zm36.168-4.318c.341-.367.622-.716.623-.777 0-.06-.155-.072-.347-.025-.977.237-1.615.212-2.116-.082-.729-.427-1.013-.876-1.01-1.592.006-1.536 1.901-3.461 3.407-3.461.616 0 1.369.461 1.654 1.013.224.433.253 1.43.053 1.803-.101.19-.1.298.007.404.11.11.302-.018.774-.512.67-.7.795-1.003.37-.892-.206.054-.317-.05-.56-.53-.35-.69-1.288-1.605-1.916-1.867-1.941-.811-4.505 1.043-4.505 3.257 0 .397.089.935.198 1.195.29.696 1.244 1.65 1.954 1.956.505.217.607.313.552.521-.116.443.214.285.862-.41zm-5.725-3.99c0-.047-.093-.189-.208-.315-.192-.213-.191-.466.013-3.42.154-2.228.18-3.23.087-3.324-.192-.192-.43-.005-2.868 2.246-1.882 1.739-2.198 1.982-2.528 1.95-.653-.064-.497.21.362.634.456.225.856.409.89.409.17 0 .028-.39-.199-.549-.252-.176-.237-.203.47-.833.401-.357.777-.65.835-.65.057 0 .503.2.99.446.966.486.937.425.805 1.692-.076.728-.1.774-.367.707-.158-.04-.323-.012-.368.061-.048.077.285.322.78.576.817.42 1.306.558 1.306.37zm-2.077-3.874-.744-.377.3-.321c.164-.177.572-.551.906-.832l.608-.51-.085 1.062c-.047.585-.12 1.13-.163 1.21-.054.1-.31.028-.822-.232z" transform="translate(-61.403 -64.365)"/></svg>